<svg enable-background="new 0 0 110 110" height="25" viewBox="0 0 110 110" width="25" xmlns="http://www.w3.org/2000/svg"><path d="m93.0818176 34.7488937s.660675-2.3219032 1.8476791-5.2496452c1.1870117-2.9277401-10.3991852-2.1679897-10.3991852-2.1679897s-.8869553 2.0898628-.8708344 4.701231c.0161133 2.6113663 5.8429794 6.1252098 5.8429794 6.1252098z" fill="#feda6f"/><path d="m89.5024567 30.8347797v8.8180523s0 1.2197113-.205658 3.2017212c-.7800446 7.612545-4.5632629 26.4967346-22.8695068 31.0422516-23.0716095 5.733345-42.8953857-6.2332535-42.8953857-6.2332535-7.2934265-3.7123184-10.753994-12.6119194-11.2184744-16.6788025-.017724-.1418114-.0283718-.280098-.0389977-.4112854-.1347361-1.9394875.6133928-3.1733704 1.3827953-3.914402.7552271-.7268791 1.5317278-.9857025 1.5317278-.9857025s.2269268.1240883.6524105.351017c3.1201763 1.6558151 16.8454342 8.7081375 28.6205578 11.0411911 13.3777695 2.6485977 25.8301506-5.0348434 27.9504433-7.4175148 2.1167526-2.3826981 7.945816-7.5487251 9.1371765-8.4776878 1.1913376-.9254112 2.9145203-5.6943283 2.2514801-8.0805511-.6594849-2.3826942 1.1948929-4.1058807 1.1948929-4.1058807z" fill="#feda6f"/><g fill="#fed35b"><path d="m97.5652847 54.9948921c-.4999542 5.3681335-7.1196899 22.8517799-23.6034622 29.4715233-16.4837723 6.6162109-23.6034622 4.3718033-33.7156906 1.9962082-9.9065762-2.322403-16.9376049-11.5907669-17.575819-15.4909897-.0141964-.081543-.0248222-.1630859-.0319214-.2411041-.1914577-1.8933716.638216-3.052803 1.5707245-3.737114.9041405-.6630402 1.907568-.8793182 2.1663933-.8828659h.0070992c.4999275 0 16.8596096 4.1200562 29.0921383 3.8683014 12.2360764-.2481995 20.9832153-8.6159477 24.2310486-14.9839592 3.247818-6.3679924 6.6197433-11.6155663 6.6197433-11.6155663l1.4962769-10.1122284h5.1199112c.2517548 3.3719254 1.1239929 7.8678207 1.1239929 7.8678207 3.6236571 2.7443353 3.9959411 8.4883119 3.499565 13.859974z"/><path d="m93.1716385 35.5119209 1.8826141-6.5278778-5.0208969.2408276-.8724899 2.4760036.5537109 2.2873535 2.7476197 2.7118149.6366882-1.2969551z"/><path d="m88.389679 41.334404 1.1959686-9.1328659-.4247742-3.9140987s-2.9094543-1.4496651-3.0544281 1.8483143c-.1449509 3.2980003-1.3126373 9.1766891-1.3126373 9.1766891s-7.417511 16.955349-29.3190613 22.7844162c-18.582798 4.9426537-36.7401276-10.6121597-41.8175163-15.4377975-.7694025.7410316-1.5175314 1.9749146-1.3827953 3.914402.2659254 3.843483 3.7087469 13.246582 11.257472 17.0900879 0 0 19.8237762 11.9665985 42.8953857 6.2332535 18.3062439-4.545517 22.0894623-23.4297066 22.8695068-31.0422516l-1.932518-1.5201492h1.0253974z"/></g><path d="m83.6591949 57.381134c-7.5275803 12.9538193-14.2180862 17.4765549-31.0280533 18.0615921-16.8099861.5885696-28.1206532-7.2331543-28.1206532-7.2331543l-.3013725-1.216156c.9041405-.6630402 1.907568-.8793182 2.1663933-.8828659h.0070992c.4999275 0 16.8596096 4.1200562 29.0921383 3.8683014 12.2360764-.2481995 20.9832153-8.6159477 24.2310486-14.9839592 3.247818-6.3679924 6.6197433-11.6155663 6.6197433-11.6155663l2.124649-16.3447876 1.8585892 1.6435852-.7850494 4.588974c.3616409 3.3506509.9235153 12.4328423-5.8645325 24.1140366z" fill="#feda6f"/><g fill="#304551"><path d="m95.1093597 27.481205c-.0396271-1.4866943-.1306534-3.1093349-1.1225662-4.2174835-.6405258-.7156029-1.5636063-1.1003799-2.46138-1.4415073-1.0962677-.4165668-2.2660904-.8078365-3.4208603-.6033497-1.3549423.239933-2.4282913 1.2495728-3.3743057 2.2488232-.4406052.4653893-.8848343.9589996-1.083107 1.5684528-.3350677 1.029808.1407547 1.9958401.2574615 3.0103703.0697937.606596-.0923004 1.2611713.0620041 1.8544159.1753082.6740952.8089828 1.4044571 1.541832 1.3931389.8283081-.0127888 1.4583664-.7936401 2.295311-.8322906.4066086 1.2384052 2.4153061 1.6369915 2.5355225 1.1302681.1201935-.5067024 2.0654144-.2461262 2.624794-.565136.1783218-.1016903.3938446-.1042881.5946274-.147028.6641159-.1412945 1.1570358-.7361832 1.3708038-1.3806305.0559616-.1686783.0961838-.3408127.1247559-.5152054.0805892-.4918881.0684585-1.0017625.055107-1.5028382z"/><path d="m16.5823994 47.4532852c-.070919.4183846-.1489124.8580437-.4254837 1.1806908-.0957184.117012-.2162809.2127533-.3049221.3368416-.1418133.198555-.1879091.4467583-.3190966.6488609-.0957394.1453629-.2269278.2552795-.3581152.3687401-.2233782.1879311-.4432077.3758392-.6665859.5637703-.351017.2942963-.719779.5992165-1.1665354.7055855-.3616428.081543-.7871265-.0106277-1.0282288-.2730255-.017724-.1418114-.0283718-.280098-.0389977-.4112854-.1347361-1.9394875.6133928-3.1733704 1.3827953-3.914402.7552271-.7268791 1.5317278-.9857025 1.5317278-.9857025s.2269268.1240883.6524105.351017c.017724.0212708.0354481.0425453.0496225.0638199.1099157.1666565.1489344.4183846.3013945.5495911.0779934.0673485.1843815.0921707.2659245.1559906.1843816.1489333.1595593.4290312.1240903.6595076z"/><path d="m26.4003315 66.6778412c-.063818.4644852-.3226452.8722458-.5956669 1.2516327-.8580437 1.1842346-1.9252911 2.2160339-3.1343517 3.04216-.0141964-.081543-.0248222-.1630859-.0319214-.2411041-.3758392-3.7335663 3.2159176-4.6129074 3.7371178-4.6199799.0390186.198555.0460968.3935623.0248222.5672913z"/></g></svg>