<svg enable-background="new 0 0 110 110" height="512" viewBox="0 0 110 110" width="512" xmlns="http://www.w3.org/2000/svg"><path d="m41.345909 23.530993h3.989579v16.075659h-3.989579z" fill="#4abba4"/><path d="m53.100452 23.530993h3.989579v16.075659h-3.989579z" fill="#dd584d"/><path d="m64.854996 23.530993h3.989579v16.075659h-3.989579z" fill="#4288b9"/><path d="m89.9032669 63.0730858v26.8639107h-69.6187344v-26.8639107c0-2.2725754 1.8416691-4.1140785 4.1140747-4.1140785h61.3905869c2.2723446 0 4.1140728 1.8415031 4.1140728 4.1140785z" fill="#ededed"/><path d="m82.3348083 42.1544037v17.4828987h-54.472702v-17.4828987c0-2.4463882 1.9791908-4.434864 4.4348068-4.434864h45.5939713c2.4556122-.0000001 4.4439239 1.9884757 4.4439239 4.434864z" fill="#ededed"/><path d="m82.3322296 41.8948517v-.738884c0-2.4513092-1.9872437-4.4384422-4.4386063-4.4384422h-45.5968208c-2.4513664 0-4.4385548 1.987133-4.4385548 4.4384422v.738884z" fill="#963e25"/><path d="m85.7896957 57.9565468h-61.3889618c-2.2731342 0-4.1159229 1.8428459-4.1159229 4.1158676v3.0485878h69.6208038v-3.0485878c.000002-2.2730217-1.8427333-4.1158676-4.1159191-4.1158676z" fill="#963e25"/><path d="m89.9032669 77.173317v2.8678436l-3.5277023-3.5185852c-1.4385071-1.4384003-3.7750626-1.4384003-5.213623 0l-1.2461243 1.2462311c-1.0811996 1.0811462-2.5197601 1.6676865-4.0499268 1.6676865-1.5209961 0-2.9595566-.5865402-4.0407562-1.6676865l-.8521881-.8520737c-1.3927078-1.3927612-3.8208618-1.3927612-5.213623 0l-.9345627.9254532c-2.2265472 2.2264862-5.8550262 2.2356567-8.0815735 0l-.3848228-.3849945c-1.4385605-1.4383926-3.7842293-1.4292221-5.2227898 0l-.5039406.5039978c-1.0812569 1.0811462-2.5106468 1.6768646-4.0408173 1.6768646-1.5209961 0-2.9595566-.5957184-4.0407562-1.6768646l-.613945-.6138306c-1.4018784-1.4019318-3.8300362-1.3927612-5.2227364 0l-.3115616.3024445c-2.2265472 2.2264862-5.8550243 2.2264862-8.0815716 0l-.2290688-.2290726c-1.392704-1.3927612-3.8208618-1.3927612-5.2136211 0l-2.5930233 2.5929108v-2.867836l1.1544609-1.1545181c2.2357197-2.2264938 5.8641987-2.2264938 8.0907459 0l.2198963.2290649c1.4477348 1.4386215 3.7842312 1.4386215 5.2227917 0l.3023872-.311615c1.0811996-1.0719681 2.5197639-1.6674652 4.0499306-1.6674652 1.5209961 0 2.9595566.5954971 4.04076 1.6674652l.613945.62323c1.4385605 1.4383926 3.7842293 1.4383926 5.2227898 0l.5039444-.5039978c2.2265472-2.2264862 5.8550224-2.2264862 8.0815697 0l.3848228.3847656c1.3927574 1.3927612 3.8300323 1.3927612 5.2227936 0l.9254456-.9346161c2.2265472-2.2264938 5.8549728-2.2264938 8.0815201 0l.8612976.8614655c1.4385681 1.4383926 3.7750626 1.4383926 5.213623 0l1.2461777-1.2554092c2.2357254-2.2267151 5.8549728-2.2267151 8.0906906 0z" fill="#dd584d"/><path d="m82.3348083 49.6116257v2.2081451l-3.0786819-3.0693932c-1.1087189-1.1178322-2.9137573-1.1178322-4.0316391 0l-.9620819.9621353c-.833786.8337326-1.9425049 1.2918701-3.1244812 1.2918701-1.1728592 0-2.2815781-.4581375-3.1153641-1.2918701l-.6597519-.6599159c-1.0811996-1.0811462-2.9595566-1.0811462-4.0315857 0l-.723896.7149467c-1.7225494 1.7224922-4.5172386 1.7224922-6.2398453 0l-.30233-.2932701c-1.1087151-1.1088867-2.9137573-1.1088867-4.0316429 0l-.3848228.3847618c-.8338432.8337326-1.9425011 1.2918739-3.1245346 1.2918739-1.1728058 0-2.2815247-.4581413-3.1153107-1.2918739l-.4764824-.4764824c-1.0811996-1.0719719-2.9595566-1.0719719-4.0407562 0l-.2290726.2382431c-1.7226028 1.7224922-4.5264091 1.7224922-6.2490158 0l-.1740952-.1740379c-1.0811996-1.0813713-2.9595585-1.0813713-4.0316429 0l-2.3456688 2.3363266v-2.208149l1.237009-1.2368393c1.7226048-1.7227173 4.5264111-1.7227173 6.2489605 0l.1740952.1740379c1.1087151 1.1178322 2.9229279 1.1178322 4.0316429 0l.2382431-.2382393c.833786-.8337326 1.9425011-1.2918701 3.1153069-1.2918701 1.1820335 0 2.2906952.4581375 3.1245384 1.2918701l.4764824.4856529c1.1178322 1.1086617 2.9229279 1.1086617 4.0315857 0l.3939934-.3941612c1.7226067-1.7224922 4.5172386-1.7224922 6.2398453 0l.2932167.3024445c1.0811996 1.0719719 2.9596138 1.0719719 4.0408134 0l.7146683-.723896c1.7226067-1.7224922 4.5264091-1.7224922 6.2490196 0l.6505737.6599197c1.117836 1.1086578 2.9229279 1.1086578 4.0315857 0l.9712524-.9621391c1.7226105-1.7227173 4.5172424-1.7227173 6.2398453 0z" fill="#dd584d"/><path d="m93.3718567 87.8695602h-76.7437096c-1.3609381 0-2.4642296 1.1032867-2.4642296 2.4642792 0 1.3610001 1.1032915 2.4642868 2.4642296 2.4642868h76.7437134c1.3609924 0 2.4642258-1.1032867 2.4642258-2.4642868-.0000038-1.3609924-1.1032372-2.4642792-2.4642296-2.4642792z" fill="#344d5b"/><path d="m45.060524 20.7327824c0 1.0257626-.8315468 1.8573074-1.8573074 1.8573074-1.0257645 0-1.8573074-.8315449-1.8573074-1.8573074 0-1.0257607.831543-3.5309105 1.8573074-3.5309105 1.0257606 0 1.8573074 2.5051498 1.8573074 3.5309105z" fill="#de594e"/><path d="m44.1318703 21.6614361c0 .5128822-.4157753.9286537-.9286537.9286537-.5128822 0-.9286537-.4157715-.9286537-.9286537 0-.5128803.4157715-1.7654552.9286537-1.7654552.5128784-.0000001.9286537 1.2525749.9286537 1.7654552z" fill="#feda6f"/><path d="m56.952549 20.7327824c0 1.0257626-.8315468 1.8573074-1.8573074 1.8573074-1.0257645 0-1.8573074-.8315449-1.8573074-1.8573074 0-1.0257607.831543-3.5309105 1.8573074-3.5309105 1.0257606 0 1.8573074 2.5051498 1.8573074 3.5309105z" fill="#de594e"/><path d="m56.0238953 21.6614361c0 .5128822-.4157753.9286537-.9286537.9286537-.5128822 0-.9286537-.4157715-.9286537-.9286537 0-.5128803.4157715-1.7654552.9286537-1.7654552.5128784-.0000001.9286537 1.2525749.9286537 1.7654552z" fill="#feda6f"/><path d="m68.844574 20.7327824c0 1.0257626-.831543 1.8573074-1.8573074 1.8573074s-1.8573074-.8315449-1.8573074-1.8573074c0-1.0257607.831543-3.5309105 1.8573074-3.5309105s1.8573074 2.5051498 1.8573074 3.5309105z" fill="#de594e"/><path d="m67.9159164 21.6614361c0 .5128822-.4157715.9286537-.9286499.9286537-.512886 0-.9286575-.4157715-.9286575-.9286537 0-.5128803.4157715-1.7654552.9286575-1.7654552.5128785-.0000001.9286499 1.2525749.9286499 1.7654552z" fill="#feda6f"/></svg>