<svg enable-background="new 0 0 110 110" height="512" viewBox="0 0 110 110" width="512" xmlns="http://www.w3.org/2000/svg"><path d="m75.7165146 69.1684036c0 8.4911118-13.7710953 15.3823776-30.7648926 15.3823776s-30.7762585-6.8912659-30.7762585-15.3823776c0-.8799973.1485729-1.7485504.4457188-2.5827942.2400179-.7428589.5942907-1.4628448 1.0513792-2.1713943 2.159955-3.3370972 6.5598021-6.1827164 12.2968035-8.0911446.7085457-.2285118 1.43997-.4457207 2.1828346-.6514893.9599342-.2628288 1.9427452-.5027771 2.959877-.7085457 2.2742081-.4800377 4.696991-.8227997 7.2112198-1.0056915.9371262-.079937 1.8856888-.1256943 2.845623-.1484337.5942917-.0228767 1.1885834-.034317 1.7828026-.034317 13.6796494 0 25.2679062 4.4683418 29.2677917 10.6396217.4570923.7085495.8113632 1.4285355 1.051384 2.1713943.0800018.1827545.1371307.3657837.1713791.5599747.1828919.6629258.2743378 1.3370134.2743378 2.0228196z" fill="#963e25"/><path d="m75.7165146 64.0028152c0 .8799973-.1485748 1.748558-.4457169 2.5827942-.0571289.2056351-.1371384.4228439-.2285843.6286087-2.9370651 6.9597702-15.2909966 12.1709747-30.0905914 12.1709747-15.2338009 0-27.8848782-5.5312347-30.3305397-12.7995834-.2971458-.8342361-.4457188-1.7027969-.4457188-2.5827942 0-.7314224.1028852-1.4514084.3085852-2.1599541 1.4742184-5.2455254 8.2511606-9.6455116 17.5308914-11.7938881 3.9313202-.9143143 8.3197975-1.4285316 12.9367828-1.4285316.6286087 0 1.2571487.0114403 1.8856888.0343208.3313942 0 .6628571.0114365.9828148.0341759 14.2167397.6513481 25.6221046 6.1484032 27.5878029 13.153923.2056952.7085458.3085852 1.4285317.3085852 2.1599541z" fill="#ededed"/><path d="m75.7165146 59.6714668c0 .7428665-.10289 1.4628487-.3085861 2.1713943-.2400208.8914375-.6399765 1.748558-1.1885147 2.5713539-.7428589 1.1657028-1.771431 2.2627716-3.0170746 3.2913437-5.4169769 4.3998489-15.1424255 7.3482819-26.2507172 7.3482819-13.6795769 0-25.279274-4.4683456-29.2791595-10.6396255-.5370941-.8227959-.9371252-1.6799164-1.1885128-2.5713539-.2056999-.7085457-.3085852-1.4285278-.3085852-2.1713943 0-6.1940193 7.314106-11.5196228 17.8509159-13.9652824 3.9313202-.9143143 8.3083572-1.4170914 12.9253426-1.4170914 16.9937963-.0000001 30.7648916 6.8798255 30.7648916 15.3823737z" fill="#963e25"/><g fill="#d6683d"><path d="m62.0249023 64.4469528v-3.3094444h2.455391v1.6547203z"/><path d="m55.640049 52.3656769.495636 1.9825363 1.9825363-1.5695076v-1.4042969z"/><path d="m51.0141335 59.6683655-3.3868332 3.6012611-.495636-2.1321182 2.3129616-1.4691429z"/><path d="m43.1665955 51.3744087v2.9738045l-4.1302834-.5684967 2.0651398-1.4966431z"/><path d="m31.1061668 51.0439873.7434502 2.3129577-2.7259865 3.7172547-3.0564098-1.9825363 2.5607757-1.3119469z"/><path d="m31.849617 64.4469528 2.5607758-1.6547241 3.7998619.4773979-2.937645 1.1773262z"/><path d="m44.1578636 69.1634903 2.0651398-1.2679443 1.4869003 1.8173217z"/><path d="m46.6360321 48.1527901.4956322 1.2390823 1.9412346-1.9825363z"/><path d="m65.2223053 53.7797165-1.2390823 1.1467361 2.1477432 2.1477471v-2.7259865z"/></g><path d="m75.7165146 64.0028152c0 .8799973-.1485748 1.748558-.4457169 2.5827942.0800018.1827545.1371307.3657837.1713791.5599747-.1371307.0228806-.262825.0457611-.3999634.068634-1.2457047.2056351-2.5256653.3656464-3.8398743.4913406-1.9885025.194191-4.045639.297142-6.1483994.297142-15.519577 0-28.2277832-5.4512939-31.9419632-13.0396652-.719986-1.4741478-1.1085052-3.0285149-1.1085052-4.6397972 0-.0915146 0-.182888.0113678-.2742653.0114403-.754303.1257629-1.5314865.3314629-2.2970886-.182888-.674366-.2857056-1.3600349-.3200226-2.0457001 3.9313202-.9143143 8.3083572-1.4170914 12.9253426-1.4170914 16.9937973 0 30.7648926 6.8798256 30.7648926 15.3823738 0 .7428665-.10289 1.4628487-.3085861 2.1713943.2056961.7085459.3085861 1.4285318.3085861 2.1599542z" fill="#19282f" opacity=".25"/><ellipse cx="65.057" cy="50.328" fill="#963e25" rx="30.768" ry="15.384"/><ellipse cx="65.057" cy="45.17" fill="#ededed" rx="30.768" ry="15.384"/><ellipse cx="65.057" cy="40.833" fill="#963e25" rx="30.768" ry="15.384"/><g fill="#d6683d"><path d="m82.1345673 45.6115723v-3.3094406h2.4553909v1.6547203z"/><path d="m75.7497177 33.5303001.495636 1.9825364 1.9825363-1.5695076v-1.4042969z"/><path d="m71.1238022 40.8329887-3.3868332 3.6012574-.495636-2.1321144 2.3129578-1.469143z"/><path d="m63.2762604 32.539032v2.9738045l-4.1302834-.5685006 2.0651436-1.496643z"/><path d="m51.2158318 32.2086067.7434539 2.3129616-2.7259903 3.7172546-3.0564079-1.9825363 2.5607758-1.3119507z"/><path d="m51.9592857 45.6115723 2.5607758-1.6547203 3.7998581.4773941-2.9376412 1.1773262z"/><path d="m64.2675323 50.3281097 2.0651398-1.2679443 1.4869003 1.8173256z"/><path d="m66.745697 29.3174095.495636 1.2390862 1.9412308-1.9825363z"/><path d="m85.3319778 34.9443359-1.2390899 1.14674 2.1477508 2.147747v-2.7259864z"/></g></svg>