<svg enable-background="new 0 0 110 110" height="25" viewBox="0 0 110 110" width="25" xmlns="http://www.w3.org/2000/svg"><path d="m94.4963226 53.6389847c0 16.2069855-10.018074 24.6881561-22.3759842 24.6881561s-22.375988-8.4811707-22.375988-24.6881561 10.0180702-34.002533 22.375988-34.002533 22.3759842 17.7955475 22.3759842 34.002533z" fill="#ededed"/><path d="m89.6060333 48.1204567c0 10.6292801-6.5703125 16.1916161-14.6751938 16.1916161s-14.67519-5.562336-14.67519-16.1916161 6.5703087-22.3004093 14.67519-22.3004093 14.6751938 11.6711292 14.6751938 22.3004093z" fill="#fff" opacity=".35"/><path d="m92.5707932 64.7650909c-3.4795685 8.9417572-11.3236313 13.5589905-20.4516983 13.5589905-12.3549042 0-22.3744698-8.475914-22.3744698-24.6831627 0-8.8618469 2.9939079-18.2028618 7.7309303-24.8426704-2.6679115 5.721756-4.2446976 12.3946953-4.2446976 18.8217201 0 16.2069244 10.0195656 24.6896629 22.3744659 24.6896629 6.7861558 0 12.8671266-2.5546951 16.9654695-7.5445404z" fill="#dbd8dd"/><path d="m60.2556496 53.6389847c0 16.2069855-10.0180702 24.6881561-22.3759842 24.6881561s-22.3759861-8.4811707-22.3759861-24.6881561 10.0180702-34.002533 22.3759861-34.002533 22.3759842 17.7955475 22.3759842 34.002533z" fill="#ededed"/><path d="m55.3653603 48.1204567c0 10.6292801-6.5703087 16.1916161-14.6751938 16.1916161s-14.67519-5.562336-14.67519-16.1916161 6.5703087-22.3004093 14.67519-22.3004093 14.6751938 11.6711292 14.6751938 22.3004093z" fill="#fff" opacity=".35"/><path d="m58.3301239 64.7650909c-3.4795723 8.9417572-11.3236351 13.5589905-20.4517021 13.5589905-12.3549023 0-22.3744698-8.475914-22.3744698-24.6831627 0-8.8618469 2.993907-18.2028618 7.7309294-24.8426704-2.6679096 5.721756-4.2446976 12.3946953-4.2446976 18.8217201 0 16.2069244 10.0195656 24.6896629 22.3744659 24.6896629 6.7861567 0 12.8671237-2.5546951 16.9654742-7.5445404z" fill="#dbd8dd"/><path d="m79.0172348 65.6753922c0 16.2069855-10.0180664 24.6881561-22.3759842 24.6881561s-22.3759842-8.4811707-22.3759842-24.6881561 10.0180702-34.002533 22.3759842-34.002533 22.3759842 17.7955475 22.3759842 34.002533z" fill="#ededed"/><path d="m74.1269455 60.1568642c0 10.6292839-6.5703049 16.1916161-14.67519 16.1916161s-14.67519-5.5623322-14.67519-16.1916161 6.5703049-22.3004074 14.67519-22.3004074 14.67519 11.6711273 14.67519 22.3004074z" fill="#fff" opacity=".35"/><path d="m77.091713 76.8014984c-3.4795762 8.9417572-11.323639 13.5589905-20.451706 13.5589905-12.3549004 0-22.3744659-8.475914-22.3744659-24.6831665 0-8.8618431 2.9939079-18.202858 7.7309303-24.8426666-2.6679115 5.7217522-4.2446976 12.3946953-4.2446976 18.8217201 0 16.2069283 10.0195656 24.6896629 22.3744659 24.6896629 6.786152 0 12.8671227-2.5546951 16.9654733-7.5445404z" fill="#dbd8dd"/><g fill="#fff"><ellipse cx="61.808" cy="52.748" opacity=".5" rx="6.909" ry="8.27" transform="matrix(.991 -.132 .132 .991 -6.421 8.619)"/><ellipse cx="78.094" cy="37.856" opacity=".5" rx="5.231" ry="6.262" transform="matrix(.97 -.244 .244 .97 -6.882 20.227)"/></g></svg>