<svg enable-background="new 0 0 110 110" height="512" viewBox="0 0 110 110" width="512" xmlns="http://www.w3.org/2000/svg"><path d="m101.8391647 39.380127-15.6099853 15.619873-15.6200562 15.6101074-15.6099891 15.6198731-15.6099854 15.6101074-15.6199951-15.6101074-15.6099854-15.6198731 15.6099854-15.6101074 15.6199951-15.619873 31.2199745-31.2202149 15.6200562 15.6101074z" fill="#963e25"/><path d="m86.2273254 23.7706699h-5.2258453-20.7756348-5.2258453l15.6136627 15.6136647z" fill="#e57a5a"/><path d="m63.268368 16.425371h14.690595v14.690595h-14.690595z" fill="#d6683d" transform="matrix(.707 .707 -.707 .707 37.491 -42.969)"/><path d="m101.8409958 39.3843346h-5.2258453-20.7756424-5.2258454l15.6136627 15.6136627z" fill="#e57a5a"/><path d="m78.882034 32.039036h14.690595v14.690595h-14.690595z" fill="#d6683d" transform="matrix(.707 .707 -.707 .707 53.104 -49.437)"/><path d="m70.6136627 39.3843346h-5.2258453-20.7756348-5.2258453l15.6136627 15.6136627z" fill="#e57a5a"/><path d="m47.654701 32.039036h14.690595v14.690595h-14.690595z" fill="#d6683d" transform="matrix(.707 .707 -.707 .707 43.958 -27.355)"/><path d="m86.2273254 54.9979973h-5.2258453-20.7756348-5.2258453l15.6136627 15.6136665z" fill="#e57a5a"/><path d="m63.268368 47.652699h14.690595v14.690595h-14.690595z" fill="#d6683d" transform="matrix(.707 .707 -.707 .707 59.572 -33.823)"/><path d="m55 54.9979973h-5.2258453-20.7756386-5.2258454l15.6136666 15.6136665z" fill="#e57a5a"/><path d="m32.041039 47.652699h14.690595v14.690595h-14.690595z" fill="#d6683d" transform="matrix(.707 .707 -.707 .707 50.425 -11.742)"/><path d="m70.6136627 70.6116638h-5.2258453-20.7756348-5.2258453l15.6136627 15.6136627z" fill="#e57a5a"/><path d="m47.654701 63.266365h14.690595v14.690595h-14.690595z" fill="#d6683d" transform="matrix(.707 .707 -.707 .707 66.039 -18.209)"/><path d="m39.3863373 70.6116638h-5.2258454-20.7756395-5.2258453l15.6136636 15.6136627z" fill="#e57a5a"/><path d="m16.427374 63.266365h14.690595v14.690595h-14.690595z" fill="#d6683d" transform="matrix(.707 .707 -.707 .707 56.893 3.872)"/><path d="m55 86.2253265h-5.2258453-20.7756386-5.2258454l15.6136666 15.6136628z" fill="#e57a5a"/><path d="m32.041039 78.880028h14.690595v14.690595h-14.690595z" fill="#d6683d" transform="matrix(.707 .707 -.707 .707 72.507 -2.596)"/></svg>