<?xml version="1.0" encoding="iso-8859-1"?>
<!-- Generator: Adobe Illustrator 19.0.0, SVG Export Plug-In . SVG Version: 6.00 Build 0)  -->
<svg version="1.1" id="Capa_1" xmlns="http://www.w3.org/2000/svg" xmlns:xlink="http://www.w3.org/1999/xlink" x="0px" y="0px"
	 viewBox="0 0 512.001 512.001" style="enable-background:new 0 0 512.001 512.001;" xml:space="preserve">
<linearGradient id="SVGID_1_" gradientUnits="userSpaceOnUse" x1="177.1336" y1="337.207" x2="201.8536" y2="312.497" gradientTransform="matrix(1.0039 0 0 -1.0039 0.1922 516.5609)">
	<stop  offset="0" style="stop-color:#FFE7A5"/>
	<stop  offset="0.216" style="stop-color:#FFE29C"/>
	<stop  offset="0.577" style="stop-color:#FFD482"/>
	<stop  offset="1" style="stop-color:#FFBF5C"/>
</linearGradient>
<path style="fill:url(#SVGID_1_);" d="M395.075,52L52.001,395.074c-6.606,6.606-17.317,6.606-23.923,0l-9.838-9.838
	c-24.319-24.319-24.319-63.747,0-88.066L297.171,18.239c24.319-24.319,63.747-24.319,88.066,0l9.838,9.838
	C401.681,34.683,401.681,45.394,395.075,52z"/>
<linearGradient id="SVGID_2_" gradientUnits="userSpaceOnUse" x1="305.0591" y1="209.2925" x2="346.9691" y2="167.3825" gradientTransform="matrix(1.0039 0 0 -1.0039 0.1922 516.5609)">
	<stop  offset="0" style="stop-color:#FFE7A5"/>
	<stop  offset="0.216" style="stop-color:#FFE29C"/>
	<stop  offset="0.577" style="stop-color:#FFD482"/>
	<stop  offset="1" style="stop-color:#FFBF5C"/>
</linearGradient>
<path style="fill:url(#SVGID_2_);" d="M460.001,116.926L116.927,460c-6.606,6.606-6.606,17.317,0,23.923l9.838,9.838
	c24.319,24.319,63.747,24.319,88.066,0l278.931-278.931c24.319-24.319,24.319-63.747,0-88.066l-9.838-9.838
	C477.318,110.32,466.607,110.32,460.001,116.926z"/>
<linearGradient id="SVGID_3_" gradientUnits="userSpaceOnUse" x1="374.3691" y1="171.4771" x2="278.1992" y2="236.5271" gradientTransform="matrix(1.0039 0 0 -1.0039 0.1922 516.5609)">
	<stop  offset="0" style="stop-color:#FFBF5C;stop-opacity:0"/>
	<stop  offset="1" style="stop-color:#FFBF5C"/>
</linearGradient>
<path style="fill:url(#SVGID_3_);" d="M111.135,466.075h131.382L493.762,214.83c24.319-24.319,24.319-63.747,0-88.066l-9.838-9.838
	c-6.606-6.606-17.317-6.606-23.923,0L116.927,460C116.332,460.594,111.623,465.419,111.135,466.075z"/>
<linearGradient id="SVGID_4_" gradientUnits="userSpaceOnUse" x1="216.0991" y1="298.2525" x2="231.1891" y2="283.1625" gradientTransform="matrix(1.0039 0 0 -1.0039 0.1922 516.5609)">
	<stop  offset="0" style="stop-color:#9EB644"/>
	<stop  offset="1" style="stop-color:#738611"/>
</linearGradient>
<path style="fill:url(#SVGID_4_);" d="M40.971,413.876l13.598-41.246c5.431-16.475,21.905-32.949,38.38-38.38l5.584-1.841
	c19.155-6.315,37.639-27.172,39.931-45.056l1.029-8.026c2.628-20.505,26.102-43.979,46.607-46.608l0.011-0.001
	c20.506-2.628,43.981-26.105,46.607-46.61l0,0c2.626-20.506,26.103-43.983,46.609-46.61l8.018-1.027
	c17.885-2.292,38.742-20.776,45.057-39.932l1.841-5.584c5.431-16.475,21.903-32.947,38.378-38.38l41.254-13.603L40.971,413.876z"/>
<linearGradient id="SVGID_5_" gradientUnits="userSpaceOnUse" x1="293.5446" y1="220.808" x2="278.4546" y2="235.898" gradientTransform="matrix(1.0039 0 0 -1.0039 0.1922 516.5609)">
	<stop  offset="0" style="stop-color:#9EB644"/>
	<stop  offset="1" style="stop-color:#738611"/>
</linearGradient>
<path style="fill:url(#SVGID_5_);" d="M471.031,98.125l-13.598,41.246c-5.431,16.475-21.905,32.949-38.38,38.38l-5.584,1.841
	c-19.155,6.315-37.639,27.172-39.931,45.056l-1.029,8.026c-2.628,20.505-26.102,43.979-46.607,46.608l-0.011,0.001
	c-20.506,2.628-43.981,26.105-46.607,46.61l0,0c-2.626,20.506-26.103,43.983-46.609,46.61l-8.018,1.027
	c-17.885,2.292-38.742,20.776-45.057,39.932l-1.841,5.584c-5.431,16.475-21.903,32.947-38.378,38.38L98.126,471.03L471.031,98.125z"
	/>
<linearGradient id="SVGID_6_" gradientUnits="userSpaceOnUse" x1="251.4996" y1="262.853" x2="282.9796" y2="231.373" gradientTransform="matrix(1.0039 0 0 -1.0039 0.1922 516.5609)">
	<stop  offset="0" style="stop-color:#FF5964"/>
	<stop  offset="0.242" style="stop-color:#FF505B"/>
	<stop  offset="0.643" style="stop-color:#FF3841"/>
	<stop  offset="1" style="stop-color:#FF1D25"/>
</linearGradient>
<path style="fill:url(#SVGID_6_);" d="M461.887,115.039L115.04,461.886c-17.929,17.929-46.997,17.929-64.926,0l0,0
	c-17.929-17.929-17.929-46.997,0-64.926L396.962,50.114c17.929-17.929,46.997-17.929,64.926,0l0,0
	C479.816,68.042,479.816,97.11,461.887,115.039z"/>
<linearGradient id="SVGID_7_" gradientUnits="userSpaceOnUse" x1="340.4941" y1="211.69" x2="258.7642" y2="264.99" gradientTransform="matrix(1.0039 0 0 -1.0039 0.1922 516.5609)">
	<stop  offset="0" style="stop-color:#FF1D25;stop-opacity:0"/>
	<stop  offset="1" style="stop-color:#FF1D25"/>
</linearGradient>
<path style="fill:url(#SVGID_7_);" d="M461.887,115.039c13.894-13.894,17.012-34.478,9.371-51.383l-30.101-2.872
	c-4.477-0.14-8.218,3.376-8.357,7.853c-0.223,7.16-3.615,13.53-8.812,17.769c-0.243,0.081-20.775,6.029-21.607,6.274
	c-17.652,3.834-31.01,19.307-31.587,37.96c-0.2,6.45-2.98,12.254-7.326,16.442c-0.893,0.169-19.513,6.916-20.389,7.115
	c-18.973,2.77-33.682,18.853-34.287,38.441c-0.199,6.455-2.982,12.26-7.331,16.45c-0.879,0.177-19.512,6.911-20.388,7.109
	c-18.971,2.771-33.679,18.854-34.284,38.437l-0.004,0.136c-0.317,8.756-5.375,16.311-12.668,20.208
	c-0.435,0.103-14.14,3.021-15.015,3.218c-18.948,2.754-33.648,18.783-34.311,38.324l-0.004,0.126
	c-0.273,8.793-5.326,16.39-12.632,20.313c-0.451,0.107-14.212,3.047-15.087,3.245c-18.933,2.767-33.617,18.79-34.28,38.32
	l-0.004,0.125c-0.272,8.791-5.321,16.387-12.625,20.31l-15.09,3.246c-18.972,2.771-33.682,18.854-34.289,38.44l0.015,0.796
	c0.298,4.468,4.161,7.846,8.63,7.548l63.571-5.059L461.887,115.039z"/>
<linearGradient id="SVGID_8_" gradientUnits="userSpaceOnUse" x1="248.4557" y1="265.8991" x2="266.7357" y2="247.6091" gradientTransform="matrix(1.0039 0 0 -1.0039 0.1922 516.5609)">
	<stop  offset="0" style="stop-color:#FFE7A5"/>
	<stop  offset="0.216" style="stop-color:#FFE29C"/>
	<stop  offset="0.577" style="stop-color:#FFD482"/>
	<stop  offset="1" style="stop-color:#FFBF5C"/>
</linearGradient>
<path style="fill:url(#SVGID_8_);" d="M437.264,96.241c-6.989,6.99-16.537,11.42-27.102,11.747
	c-12.604,0.394-22.771,10.558-23.159,23.144c-0.655,21.141-17.719,38.206-38.852,38.861l-0.078,0.003
	c-12.553,0.429-22.682,10.578-23.07,23.143c-0.655,21.132-17.719,38.198-38.851,38.854l-0.126,0.004
	c-12.49,0.449-22.568,10.524-23.022,23.014l-0.004,0.136c-0.654,21.131-17.719,38.196-38.851,38.851l-0.188,0.006
	c-12.503,0.482-22.575,10.61-22.964,23.138l-0.004,0.129c-0.717,21.074-17.756,38.078-38.847,38.73l-0.179,0.006
	c-12.509,0.476-22.583,10.608-22.973,23.138l-0.004,0.125c-0.715,21.075-17.754,38.079-38.846,38.732l-0.127,0.004
	c-12.509,0.45-22.597,10.554-23.024,23.067c-0.087,4.158-3.34,7.634-7.568,7.917c-4.468,0.298-8.332-3.08-8.63-7.548l-0.015-0.796
	c0.655-21.132,17.721-38.196,38.85-38.853l0.129-0.003c12.534-0.45,22.637-10.593,23.026-23.14l0.004-0.125
	c0.715-21.075,17.755-38.08,38.847-38.733l0.187-0.006c12.506-0.481,22.576-10.61,22.966-23.138l0.004-0.126
	c0.715-21.075,17.755-38.078,38.847-38.731l0.187-0.006c12.465-0.478,22.509-10.543,22.961-23.012l0.004-0.136
	c0.654-21.131,17.719-38.196,38.85-38.85l0.127-0.004c12.534-0.45,22.638-10.591,23.026-23.142
	c0.653-21.134,17.72-38.199,38.852-38.853l0.073-0.003c12.557-0.426,22.686-10.578,23.076-23.141
	c0.655-21.138,17.717-38.203,38.848-38.86c12.602-0.391,22.768-10.557,23.159-23.143c0.139-4.476,3.88-7.992,8.357-7.853
	c4.477,0.139,7.992,3.88,7.853,8.357C448.683,79.702,444.251,89.253,437.264,96.241z"/>
<g>
</g>
<g>
</g>
<g>
</g>
<g>
</g>
<g>
</g>
<g>
</g>
<g>
</g>
<g>
</g>
<g>
</g>
<g>
</g>
<g>
</g>
<g>
</g>
<g>
</g>
<g>
</g>
<g>
</g>
</svg>
