<?xml version="1.0" encoding="iso-8859-1"?>
<!-- Generator: Adobe Illustrator 19.0.0, SVG Export Plug-In . SVG Version: 6.00 Build 0)  -->
<svg version="1.1" id="Capa_1" xmlns="http://www.w3.org/2000/svg" xmlns:xlink="http://www.w3.org/1999/xlink" x="0px" y="0px"
	 viewBox="0 0 512 512" style="enable-background:new 0 0 512 512;" xml:space="preserve">
<linearGradient id="SVGID_1_" gradientUnits="userSpaceOnUse" x1="47.2276" y1="103.952" x2="54.9976" y2="96.172" gradientTransform="matrix(1.0039 0 0 -1.0039 0.1922 516.5609)">
	<stop  offset="0" style="stop-color:#654E48"/>
	<stop  offset="1" style="stop-color:#503837"/>
</linearGradient>
<path style="fill:url(#SVGID_1_);" d="M49.34,432.757L49.34,432.757c-8.038,0-14.554-6.516-14.554-14.554V403.65h29.108v14.554
	C63.894,426.242,57.378,432.757,49.34,432.757z"/>
<linearGradient id="SVGID_2_" gradientUnits="userSpaceOnUse" x1="458.9281" y1="103.9525" x2="466.7081" y2="96.1725" gradientTransform="matrix(1.0039 0 0 -1.0039 0.1922 516.5609)">
	<stop  offset="0" style="stop-color:#654E48"/>
	<stop  offset="1" style="stop-color:#503837"/>
</linearGradient>
<path style="fill:url(#SVGID_2_);" d="M462.66,432.757L462.66,432.757c-8.038,0-14.554-6.516-14.554-14.554V403.65h29.108v14.554
	C477.214,426.242,470.698,432.757,462.66,432.757z"/>
<linearGradient id="SVGID_3_" gradientUnits="userSpaceOnUse" x1="202.4286" y1="119.124" x2="482.2786" y2="119.124" gradientTransform="matrix(1.0039 0 0 -1.0039 0.1922 516.5609)">
	<stop  offset="0" style="stop-color:#FFE7A5"/>
	<stop  offset="0.216" style="stop-color:#FFE29C"/>
	<stop  offset="0.577" style="stop-color:#FFD482"/>
	<stop  offset="1" style="stop-color:#FFBF5C"/>
</linearGradient>
<path style="fill:url(#SVGID_3_);" d="M477.736,415.817H34.264c-9.214,0-16.683-7.469-16.683-16.683v-21.012h476.839v21.012
	C494.419,408.348,486.95,415.817,477.736,415.817z"/>
<linearGradient id="SVGID_4_" gradientUnits="userSpaceOnUse" x1="261.3477" y1="103.3228" x2="233.0677" y2="207.5927" gradientTransform="matrix(1.0039 0 0 -1.0039 0.1922 516.5609)">
	<stop  offset="0" style="stop-color:#FFBF5C;stop-opacity:0"/>
	<stop  offset="1" style="stop-color:#FFBF5C"/>
</linearGradient>
<path style="fill:url(#SVGID_4_);" d="M494.419,399.134v-21.012H17.581v21.012l16.683,16.683h443.472
	C486.95,415.817,494.419,408.348,494.419,399.134z"/>
<linearGradient id="SVGID_5_" gradientUnits="userSpaceOnUse" x1="167.4874" y1="282.6518" x2="393.3174" y2="56.8117" gradientTransform="matrix(1.0039 0 0 -1.0039 0.1922 516.5609)">
	<stop  offset="0" style="stop-color:#FF5964"/>
	<stop  offset="0.242" style="stop-color:#FF505B"/>
	<stop  offset="0.643" style="stop-color:#FF3841"/>
	<stop  offset="1" style="stop-color:#FF1D25"/>
</linearGradient>
<path style="fill:url(#SVGID_5_);" d="M338.619,400.662H12.356C5.533,400.662,0,395.13,0,388.306V91.599
	c0-6.825,5.533-12.356,12.356-12.356h326.263c6.825,0,12.356,5.533,12.356,12.356v296.706
	C350.976,395.13,345.443,400.662,338.619,400.662z"/>
<linearGradient id="SVGID_6_" gradientUnits="userSpaceOnUse" x1="352.5511" y1="352.5855" x2="594.3711" y2="110.7655" gradientTransform="matrix(1.0039 0 0 -1.0039 0.1922 516.5609)">
	<stop  offset="0" style="stop-color:#FF5964"/>
	<stop  offset="0.242" style="stop-color:#FF505B"/>
	<stop  offset="0.643" style="stop-color:#FF3841"/>
	<stop  offset="1" style="stop-color:#FF1D25"/>
</linearGradient>
<path style="fill:url(#SVGID_6_);" d="M363.332,400.662h136.306c6.825,0,12.356-5.533,12.356-12.357V91.599
	c0-6.825-5.533-12.356-12.356-12.356H363.332c-6.825,0-12.357,5.533-12.357,12.356v296.706
	C350.976,395.13,356.508,400.662,363.332,400.662z"/>
<linearGradient id="SVGID_7_" gradientUnits="userSpaceOnUse" x1="246.601" y1="233.0453" x2="25.1039" y2="454.5493" gradientTransform="matrix(1.0039 0 0 -1.0039 0.1922 516.5609)">
	<stop  offset="0" style="stop-color:#FF5964"/>
	<stop  offset="0.242" style="stop-color:#FF505B"/>
	<stop  offset="0.643" style="stop-color:#FF3841"/>
	<stop  offset="1" style="stop-color:#FF1D25"/>
</linearGradient>
<path style="fill:url(#SVGID_7_);" d="M37.48,106.736h276.015c10.435,0,18.894,8.459,18.894,18.894v169.395
	c0,10.435-8.459,18.894-18.894,18.894H37.48c-10.435,0-18.894-8.459-18.894-18.894V125.63
	C18.587,115.195,27.046,106.736,37.48,106.736z"/>
<linearGradient id="SVGID_8_" gradientUnits="userSpaceOnUse" x1="106.0802" y1="373.5646" x2="316.9302" y2="162.7246" gradientTransform="matrix(1.0039 0 0 -1.0039 0.1922 516.5609)">
	<stop  offset="0" style="stop-color:#654E48"/>
	<stop  offset="1" style="stop-color:#503837"/>
</linearGradient>
<path style="fill:url(#SVGID_8_);" d="M307.63,308.171H43.346c-9.919,0-17.96-8.041-17.96-17.96V130.445
	c0-9.919,8.041-17.96,17.96-17.96H307.63c9.919,0,17.96,8.041,17.96,17.96v159.766C325.59,300.129,317.548,308.171,307.63,308.171z"
	/>
<linearGradient id="SVGID_9_" gradientUnits="userSpaceOnUse" x1="518.0351" y1="207.5495" x2="428.7151" y2="296.8795" gradientTransform="matrix(1.0039 0 0 -1.0039 0.1922 516.5609)">
	<stop  offset="0" style="stop-color:#FF1D25;stop-opacity:0"/>
	<stop  offset="1" style="stop-color:#FF1D25"/>
</linearGradient>
<path style="fill:url(#SVGID_9_);" d="M510.825,222.473l-39.894-39.894c-9.852-10.546-23.874-17.147-39.446-17.147
	c-29.813,0-53.983,24.168-53.983,53.983c0,15.571,6.602,29.593,17.148,39.445l116.175,116.175V222.473z"/>
<linearGradient id="SVGID_10_" gradientUnits="userSpaceOnUse" x1="400.4236" y1="325.168" x2="469.7236" y2="255.868" gradientTransform="matrix(1.0039 0 0 -1.0039 0.1922 516.5609)">
	<stop  offset="0" style="stop-color:#FFE7A5"/>
	<stop  offset="0.216" style="stop-color:#FFE29C"/>
	<stop  offset="0.577" style="stop-color:#FFD482"/>
	<stop  offset="1" style="stop-color:#FFBF5C"/>
</linearGradient>
<circle style="fill:url(#SVGID_10_);" cx="431.486" cy="219.417" r="53.983"/>
<linearGradient id="SVGID_11_" gradientUnits="userSpaceOnUse" x1="451.4986" y1="274.093" x2="399.5186" y2="326.073" gradientTransform="matrix(1.0039 0 0 -1.0039 0.1922 516.5609)">
	<stop  offset="0" style="stop-color:#FFE7A5"/>
	<stop  offset="0.216" style="stop-color:#FFE29C"/>
	<stop  offset="0.577" style="stop-color:#FFD482"/>
	<stop  offset="1" style="stop-color:#FFBF5C"/>
</linearGradient>
<circle style="fill:url(#SVGID_11_);" cx="431.486" cy="219.417" r="40.488"/>
<linearGradient id="SVGID_12_" gradientUnits="userSpaceOnUse" x1="457.0181" y1="263.5025" x2="430.3181" y2="290.2025" gradientTransform="matrix(1.0039 0 0 -1.0039 0.1922 516.5609)">
	<stop  offset="0" style="stop-color:#FFBF5C;stop-opacity:0"/>
	<stop  offset="1" style="stop-color:#FFBF5C"/>
</linearGradient>
<path style="fill:url(#SVGID_12_);" d="M469.662,257.588c-0.926,0.926-1.874,1.804-2.846,2.647l-0.082,0.047
	c-4.744,4.099-10.014,7.226-15.577,9.405c-12.625,4.919-26.714,4.919-39.34,0c-5.563-2.179-10.833-5.306-15.577-9.405v-12.637
	c-0.269-2.331,0.492-4.755,2.284-6.547l54.647-54.647c3.115-3.115,8.163-3.115,11.278,0c0.796,0.796,9.826,10.143,19.57,20.484
	C488.19,224.549,483.399,243.851,469.662,257.588z"/>
<linearGradient id="SVGID_13_" gradientUnits="userSpaceOnUse" x1="426.6901" y1="298.9045" x2="433.4701" y2="292.1245" gradientTransform="matrix(1.0039 0 0 -1.0039 0.1922 516.5609)">
	<stop  offset="0" style="stop-color:#FFE7A5"/>
	<stop  offset="0.216" style="stop-color:#FFE29C"/>
	<stop  offset="0.577" style="stop-color:#FFD482"/>
	<stop  offset="1" style="stop-color:#FFBF5C"/>
</linearGradient>
<path style="fill:url(#SVGID_13_);" d="M398.52,252.381L398.52,252.381c-3.114-3.114-3.114-8.164,0-11.278l54.655-54.655
	c3.114-3.114,8.164-3.114,11.278,0l0,0c3.114,3.114,3.114,8.164,0,11.278l-54.655,54.654
	C406.683,255.495,401.634,255.495,398.52,252.381z"/>
<linearGradient id="SVGID_14_" gradientUnits="userSpaceOnUse" x1="429.6091" y1="375.003" x2="429.6091" y2="415.783" gradientTransform="matrix(1.0039 0 0 -1.0039 0.1922 516.5609)">
	<stop  offset="0" style="stop-color:#FF5964"/>
	<stop  offset="0.242" style="stop-color:#FF505B"/>
	<stop  offset="0.643" style="stop-color:#FF3841"/>
	<stop  offset="1" style="stop-color:#FF1D25"/>
</linearGradient>
<path style="fill:url(#SVGID_14_);" d="M381.022,104.158H481.95c10.991,0,19.901,8.91,19.901,19.901l0,0
	c0,10.991-8.91,19.901-19.901,19.901H381.022c-10.991,0-19.901-8.91-19.901-19.901l0,0
	C361.122,113.068,370.031,104.158,381.022,104.158z"/>
<linearGradient id="SVGID_15_" gradientUnits="userSpaceOnUse" x1="445.4002" y1="147.6146" x2="404.5402" y2="188.4646" gradientTransform="matrix(1.0039 0 0 -1.0039 0.1922 516.5609)">
	<stop  offset="0" style="stop-color:#FF1D25;stop-opacity:0"/>
	<stop  offset="1" style="stop-color:#FF1D25"/>
</linearGradient>
<path style="fill:url(#SVGID_15_);" d="M415.506,307.988c-3.683-3.876-8.875-6.305-14.643-6.305
	c-11.165,0-20.215,9.05-20.215,20.215c0,5.77,2.428,10.961,6.306,14.643l36.664,36.664c3.683,3.876,8.875,6.306,14.643,6.306
	c11.165,0,20.215-9.05,20.215-20.215c0-5.769-2.428-10.96-6.305-14.643L415.506,307.988z"/>
<linearGradient id="SVGID_16_" gradientUnits="userSpaceOnUse" x1="378.9686" y1="193.903" x2="419.2486" y2="193.903" gradientTransform="matrix(1.0039 0 0 -1.0039 0.1922 516.5609)">
	<stop  offset="0" style="stop-color:#9EB644"/>
	<stop  offset="1" style="stop-color:#738611"/>
</linearGradient>
<circle style="fill:url(#SVGID_16_);" cx="400.866" cy="321.897" r="20.219"/>
<linearGradient id="SVGID_17_" gradientUnits="userSpaceOnUse" x1="509.6496" y1="144.364" x2="468.8596" y2="185.154" gradientTransform="matrix(1.0039 0 0 -1.0039 0.1922 516.5609)">
	<stop  offset="0" style="stop-color:#FF1D25;stop-opacity:0"/>
	<stop  offset="1" style="stop-color:#FF1D25"/>
</linearGradient>
<path style="fill:url(#SVGID_17_);" d="M512,343.237v31.939c-3.443,2.717-7.776,4.333-12.497,4.333
	c-5.762,0-10.962-2.424-14.64-6.301l-36.67-36.67c-3.876-3.677-6.301-8.866-6.301-14.64c0-11.162,9.053-20.215,20.215-20.215
	c5.774,0,10.962,2.424,14.64,6.301L512,343.237z"/>
<radialGradient id="SVGID_18_" cx="458.3586" cy="203.063" r="29.532" gradientTransform="matrix(1.0039 0 0 -1.0039 0.1922 516.5609)" gradientUnits="userSpaceOnUse">
	<stop  offset="0" style="stop-color:#FFE7A5"/>
	<stop  offset="0.216" style="stop-color:#FFE29C"/>
	<stop  offset="0.577" style="stop-color:#FFD482"/>
	<stop  offset="1" style="stop-color:#FFBF5C"/>
</radialGradient>
<circle style="fill:url(#SVGID_18_);" cx="462.105" cy="321.897" r="20.219"/>
<linearGradient id="SVGID_19_" gradientUnits="userSpaceOnUse" x1="174.6111" y1="134.963" x2="174.6111" y2="194.593" gradientTransform="matrix(1.0039 0 0 -1.0039 0.1922 516.5609)">
	<stop  offset="0" style="stop-color:#FF5964"/>
	<stop  offset="0.242" style="stop-color:#FF505B"/>
	<stop  offset="0.643" style="stop-color:#FF3841"/>
	<stop  offset="1" style="stop-color:#FF1D25"/>
</linearGradient>
<path style="fill:url(#SVGID_19_);" d="M313.496,374.696H37.48c-10.435,0-18.894-8.459-18.894-18.894l0,0
	c0-10.435,8.459-18.894,18.894-18.894h276.015c10.435,0,18.894,8.459,18.894,18.894l0,0
	C332.389,366.237,323.93,374.696,313.496,374.696z"/>
<linearGradient id="SVGID_20_" gradientUnits="userSpaceOnUse" x1="138.5718" y1="341.0762" x2="245.1218" y2="234.5262" gradientTransform="matrix(1.0039 0 0 -1.0039 0.1922 516.5609)">
	<stop  offset="0" style="stop-color:#FFFFFF;stop-opacity:0"/>
	<stop  offset="0.483" style="stop-color:#FFFFFF"/>
	<stop  offset="0.927" style="stop-color:#FFFFFF;stop-opacity:0.141"/>
	<stop  offset="1" style="stop-color:#FFFFFF;stop-opacity:0"/>
</linearGradient>
<path style="opacity:0.25;fill:url(#SVGID_20_);enable-background:new    ;" d="M332.389,239.307V125.63
	c0-10.435-8.459-18.894-18.894-18.894H189.183L18.587,277.333v17.692c0,10.435,8.459,18.894,18.894,18.894h220.297L332.389,239.307z
	"/>
<g>
</g>
<g>
</g>
<g>
</g>
<g>
</g>
<g>
</g>
<g>
</g>
<g>
</g>
<g>
</g>
<g>
</g>
<g>
</g>
<g>
</g>
<g>
</g>
<g>
</g>
<g>
</g>
<g>
</g>
</svg>
