<svg enable-background="new 0 0 110 110" height="512" viewBox="0 0 110 110" width="512" xmlns="http://www.w3.org/2000/svg"><path d="m101.4226074 43.4510078-.0200195 5.6499023c0 1.1503906-.5499268 2.1000977-1.6899414 2.7602539-.4499512.2597656-.9799805.4697266-1.5700684.6298828-4.8798828 1.2900391-9.5300293 2.8500977-13.3099365 5.050293l-19.9100342 11.569828.0100098-5.6499062 19.0512924-12.4390678c3.7799072-2.199707 8.4200439-3.7597656 13.2999268-5.0498047.6000977-.1601562 1.130127-.3701172 1.5700684-.6298828 1.1499023-.6601561 2.5687026-.7415961 2.5687026-1.8914985z" fill="#bb9b45"/><path d="m63.616291 25.1809597-.0160179 5.6497288c-2.9120026 3.7428513-6.0352325 6.5062752-9.8236465 8.7078629l.0160179-5.6497307c3.788414-2.2015877 6.911644-4.9650116 9.8236465-8.707861z" fill="#d6b24e"/><path d="m32.5396957 52.2019539.0160027-5.6497192c.000576-.1986618.1299438-.3973694.3910789-.5491219l-.0160179 5.6497307c-.2611313.1517524-.3904991.35046-.3910637.5491104z" fill="#d6b24e"/><path d="m60.3589859 62.9330063-.0160179 5.6497345-27.4059792-15.8228531.0160179-5.6497307z" fill="#feda6f"/><path d="m58.2153587 63.4610519-.0160179 5.6497269-26.1669731-15.1075058.0160179-5.6497307z" fill="#bb9b45"/><path d="m35.3389626 50.2533607 18.4376564-10.7148056.0160026-5.6497116-20.8458595 12.1142846-.0081177 2.8644294z" fill="#d6b24e"/><path d="m30.6321716 52.0438423.0160122-5.6497116c-.0020065.709198.4650345 1.4194908 1.4002018 1.9594116l-.0160179 5.6497307c-.9351654-.5399208-1.4022064-1.2502136-1.4001961-1.9594307z" fill="#bb9b45"/><path d="m62.2702599 62.9330559-.0160179 5.6497307c-.5275154.3065567-1.3876076.3022919-1.911274-.0000458l.0160179-5.6497345c.5236626.3023414 1.3837585.3066101 1.911274.0000496z" fill="#feda6f"/><path d="m64.9346085 63.4608994-.0160217 5.6497345c-1.8465157 1.0730743-4.8532562 1.0774765-6.7192459.000145l.0160179-5.6497269c1.8659896 1.0773315 4.8727264 1.0729293 6.7192497-.0001526z" fill="#bb9b45"/><path d="m88.8975601 30.473505c10.5022354 6.063467 15.3568268 13.1105099 10.8286133 15.7420216-.4472046.2598877-.9749069.4641113-1.569664.6217766-4.8812561 1.2901878-9.5257797 2.8529167-13.3066483 5.0501175l-19.9152526 11.5734787c-1.8465233 1.073082-4.85326 1.0774841-6.7192497.0001526l-26.1669732-15.1075097c-1.8584957-1.0730019-1.8681164-2.8189011-.0215988-3.8919792l19.9152565-11.5734825c3.7808685-2.1971989 6.4635658-4.8925877 8.6749802-7.7242088.2702484-.3450241.6209908-.651413 1.0681992-.9113007 4.5282096-2.6315098 16.7101249.1574783 27.2123374 6.2209339zm9.2196427 14.626566c.227478-.0639229.4257889-.1364136.579628-.2258186 2.4030533-1.3964996-.8949814-7.4941902-11.3233795-13.5150299-10.4210968-6.0166225-20.958847-7.9070225-23.3618927-6.5105247-.1538429.0894032-.2857552.2002316-.3952675.332262-2.9120026 3.7428493-6.0352325 6.5062733-9.8236465 8.7078609l-20.8458673 12.1142921c-.5275345.3065681-.5173225.8047485.0062294 1.1070213l27.4059792 15.8228493c.5236778.3023453 1.3837433.3066216 1.911274.0000534l20.8458672-12.114296c3.7808684-2.1972007 8.5418166-4.0155372 15.0010757-5.7186698" fill="#d6b24e"/><path d="m87.3734512 31.3592396c10.4284058 6.0208416 13.7264252 12.1185284 11.3233795 13.5150242-.1538467.0894051-.35215.1618843-.5796204.2258186-6.4592819 1.7031326-11.2202072 3.5214729-15.0010757 5.7186775l-20.8458748 12.114296c-.5275154.3065605-1.3876114.3022919-1.911274-.0000496l-27.4059791-15.8228493c-.5235672-.3022804-.5337486-.8004646-.0062332-1.1070251l20.8458748-12.114296c3.7884216-2.2015915 6.9116325-4.9650078 9.8236351-8.7078705.1095314-.1320267.2414207-.2428551.3952599-.3322601 2.4030456-1.3964977 12.9408111.4939098 23.3619079 6.5105343z" fill="#feda6f"/><g fill="#d6b24e"><path d="m74.0663147 35.8754082c-.7796326 0-1.4117661.3158569-1.4117661.7061653 0 .3897438.6321335.7056007 1.4117661.7056007.7797699 0 1.4117661-.3158569 1.4117661-.7056007-.0000001-.3903084-.6319962-.7061653-1.4117661-.7061653z"/><path d="m59.6271248 44.3941994c-.7796288 0-1.4117661.3158569-1.4117661.7061653 0 .3897476.6321373.7056046 1.4117661.7056046.7797737 0 1.4117699-.3158569 1.4117699-.7056046 0-.3903084-.6319962-.7061653-1.4117699-.7061653z"/><path d="m61.770752 55.7626038c-.7796326 0-1.4117661.3158569-1.4117661.7061653 0 .3897476.6321335.7056046 1.4117661.7056046.7797699 0 1.4117661-.3158569 1.4117661-.7056046-.0000001-.3903084-.6319962-.7061653-1.4117661-.7061653z"/><path d="m68.5999603 29.1111088c-.7610626 0-1.3781357.3083305-1.3781357.6893406 0 .3804607.6170731.6887913 1.3781357.6887913.7611923 0 1.3781281-.3083305 1.3781281-.6887913 0-.3810101-.6169358-.6893406-1.3781281-.6893406z"/><path d="m55.5009727 37.269516c-.3898163 0-.705883.1579285-.705883.3530846 0 .1948738.3160667.3528023.705883.3528023.3898849 0 .705883-.1579285.705883-.3528023.0000001-.1951561-.315998-.3530846-.705883-.3530846z"/><path d="m83.1001129 40.2642021c-1.3728104 0-2.4859085.5561752-2.4859085 1.243454 0 .6862831 1.1130981 1.2424583 2.4859085 1.2424583 1.3730621 0 2.4859161-.5561752 2.4859161-1.2424583.0000001-.6872788-1.112854-1.243454-2.4859161-1.243454z"/><path d="m73.5571518 43.8571281c-1.3728104 0-2.4859161.5561752-2.4859161 1.243454 0 .6862831 1.1131058 1.2424583 2.4859161 1.2424583 1.3730621 0 2.4859161-.5561752 2.4859161-1.2424583 0-.6872787-1.112854-1.243454-2.4859161-1.243454z"/></g><g enable-background="new"><path d="m18.0626221 62.8811836-.1500244 5.5600624c-.0200195 1.1499023.4899902 2.1098633 1.6201172 2.8100586.4399414.2695312.9599609.4897461 1.5499268.6699219 4.8499756 1.4199219 9.4500732 3.1098633 13.1600342 5.4199219l19.5899658 12.1201172c1.8099365 1.1298828 4.8199463 1.2197266 6.710083.1899414l26.579834-14.3701172c.9500732-.5102539 1.4400635-1.2099609 1.460083-1.9199219l.1400146-5.6401367z" fill="#bb9b45"/><g fill="#d6b24e"><path d="m56.3619461 45.588253-.1422272 5.6479645c2.8060303 3.8229408 5.8506355 6.6727562 9.5759048 8.9795876l.1422272-5.6479645c-3.7252655-2.3068276-6.7698745-5.1566429-9.5759048-8.9795876z"/><path d="m83.9259491 71.4428177-18.1303177-11.227005.1422424-5.6479454 20.498375 12.6933861-.0721131 2.863533z"/><path d="m58.3182602 44.7143135c.4397545.272316.7817802.5884056 1.0422592.9408646 2.1312332 2.8924484 4.7373886 5.6619148 8.4552307 7.9641495l19.5832901 12.1267357c1.8157425 1.1243744 1.757225 2.8693161-.1305923 3.8898468l-26.5798455 14.3686904c-1.8954315 1.0246429-4.9008675.9360275-6.7166061-.1883469l-19.5832901-12.1267318c-3.717844-2.3022308-8.3167763-3.9944382-13.1599808-5.4208298-.5901127-.174263-1.1118832-.3931885-1.5516376-.6654968-4.4527302-2.7573052.5973301-9.6656189 11.2652702-15.4325562 10.6679211-5.7669296 22.9231701-8.2136268 27.3759022-5.4563255zm-37.0015907 19.8189278c6.4090214 1.8833771 11.1171761 3.8343506 14.835022 6.1365814l20.4983864 12.6933975c.5187416.3212204 1.3785896.3410416 1.9105301.0534821l27.8383942-15.0490494c.5318146-.2874908.5559769-.7851868.0372314-1.1064148l-20.4983826-12.6933975c-3.7252655-2.3068275-6.7698746-5.1566429-9.5759048-8.9795876-.1057701-.1350441-.2345238-.2495232-.3858032-.3432007-2.3629913-1.4632568-12.9495544.1312599-23.5350761 5.8536453-10.5929433 5.7263947-14.060465 11.7293244-11.6974737 13.1925774.1512757.0936814.3474808.1716995.5730763.2419663"/></g><path d="m32.4410629 51.0987129c-10.5929451 5.7263985-14.0604553 11.7293205-11.6974659 13.1925774.1512775.0936737.347477.1716843.5730667.2419662 6.4090443 1.8833694 11.1171741 3.834343 14.8350201 6.1365814l20.498394 12.6934052c.5187263.3212128 1.3786011.3410339 1.9105301.0534821l27.8383942-15.0490494c.5318298-.2874985.5559616-.785202.0372391-1.1064148l-20.4983979-12.6934014c-3.7252731-2.3068352-6.7698593-5.1566467-9.5758896-8.979599-.105793-.1350403-.23452-.2495232-.3857994-.3432007-2.3629913-1.463253-12.9495659.1312638-23.5350914 5.853653z" fill="#feda6f"/></g><g fill="#d6b24e"><path d="m45.6164894 55.9858208c.7793274.0218353 1.4023705.3552742 1.3914375.74543-.0109177.3895912-.6516533.6876183-1.4309769.6657829-.7794647-.0218391-1.4023666-.3552742-1.3914528-.7448654.010933-.3901558.6515275-.6881867 1.4309922-.6663475z"/><path d="m59.8114166 64.9056854c.7793236.0218353 1.4023666.355278 1.3914375.74543-.0109177.389595-.6516533.6876221-1.4309769.6657867-.7794685-.021843-1.4023705-.355278-1.3914528-.7448654.010933-.3901596.6515275-.6881866 1.4309922-.6663513z"/><path d="m57.3502235 76.2095947c.7793236.0218353 1.4023666.3552704 1.3914337.74543-.0109138.3895874-.6516495.6876144-1.4309731.6657791-.7794685-.0218353-1.4023705-.3552704-1.3914528-.7448654.010933-.390152.6515275-.6881866 1.4309922-.6663437z"/><path d="m51.2701607 49.3772774c.7607574.0213165 1.3689575.3468094 1.358284.7276688-.0106544.3803101-.6361275.6712379-1.3968849.6499252-.7608948-.0213203-1.3689575-.3468132-1.3582993-.7271233.0106697-.3808594.6360054-.6717911 1.3969002-.6504707z"/><path d="m64.1355057 57.8993645c.3896561.0109177.7011795.177639.6957169.372715-.0054626.1947975-.3258286.343811-.7154922.3328934-.3897324-.0109215-.7011833-.177639-.6957245-.3724327.0054664-.1950799.3257636-.3440934.7154998-.3331757z"/><path d="m36.4633102 60.1198692c1.3722763.0384521 2.4693604.6255875 2.4501114 1.3125916-.0192223.6860161-1.1474609 1.2108002-2.5197372 1.172348-1.3725243-.038456-2.4693604-.6255836-2.4501381-1.3115997.019249-.6870041 1.1472397-1.2117958 2.5197639-1.1733399z"/><path d="m45.9018974 63.9786682c1.3722763.0384521 2.4693604.6255875 2.4501114 1.3125916-.0192223.6860123-1.1474609 1.2108002-2.5197372 1.172348-1.3725243-.0384598-2.4693604-.6255875-2.4501381-1.3115997.0192489-.6870041 1.1472397-1.2117959 2.5197639-1.1733399z"/><path d="m41.4376831 21.231493 1.2805443 5.502718c3.676075 2.9958572 7.3387299 4.9898605 11.5238914 6.2873573l-1.2805443-5.502718c-4.1851615-1.2974968-7.8478164-3.2915001-11.5238914-6.2873573z"/><path d="m42.258606 26.4988823c.1699524.0526886.3233299.1311703.4596214.2353287l-1.280529-5.5027084c-.1363068-.1041679-.2896843-.1826496-.4596367-.2353382-2.6547089-.8230228-12.5016975 3.3787155-21.3111629 11.5758038-6.6120081 6.1523895-9.3049946 11.4488373-9.1180754 14.0595589.4268198 1.8342247.8536777 3.6682625 1.2805367 5.5024643-.1867313-2.6108246 2.5062971-7.9071236 9.118083-14.0593033 8.8094653-8.1970903 18.656454-12.3988286 21.3111629-11.5758058z"/><path d="m11.8944454 52.5771561c-.0320473-.1376648-.0538216-.2855225-.0650969-.4431763-.4268475-1.8341904-.8537054-3.6682281-1.2805128-5.5024414.0112677.1575394.0330362.3053131.0650654.4429016.3841687 1.6508255.8963919 3.8519096 1.2805443 5.5027161z"/></g><path d="m10.6138678 47.074276 1.280549 5.5027199c.1448212.622345.4995422 1.0363693 1.043025 1.2048607.1699543.0526886.3794546.0789337.6154642.090313l-1.2805433-5.5027161c-.2360096-.0113831-.4455109-.0376244-.6154652-.0903168-.5434827-.1684914-.8982029-.5825158-1.0430297-1.2048607z" fill="#feda6f"/><path d="m77.7751694 40.6087036-1.2805328-5.5027122c-.0450363-.1934891-.2156143-.3581886-.5040894-.4476242l1.2805405 5.5027199c.2884826.0894355.459053.2541313.5040817.4476165z" fill="#d6b24e"/><path d="m53.0647125 57.2958717 1.2805443 5.5027199 23.1676216-21.557167-1.2805481-5.5027199z" fill="#feda6f"/><path d="m74.6106873 39.3363113-20.3685608-6.3147392-1.2805252-5.5027046 23.0289611 7.1395111.6492386 2.7898941z" fill="#d6b24e"/><path d="m12.2723627 48.3694534 1.2805433 5.5027161c6.6766205.2137108 11.7237988.9199562 15.9006252 2.2148705l-1.2805443-5.5027199c-4.1768264-1.2949143-9.2240047-2.0011597-15.9006242-2.2148667z" fill="#feda6f"/><path d="m51.2019653 57.7238426 1.2805443 5.5027161c.5827637.1806717 1.4200668-.0160599 1.8627472-.4279671l-1.2805443-5.5027199c-.4426803.4119072-1.2799835.6086388-1.8627472.4279709z" fill="#feda6f"/><path d="m43.1118698 19.8943195c.4940414.1531658.90448.3732471 1.2451172.6490059 2.7892532 2.2646179 6.0073242 4.2909431 10.1841507 5.5858555l22.0009003 6.8207932c2.0398941.6324158 2.4214096 2.3361435.8503342 3.7980118l-22.1202279 20.5825843c-1.5774117 1.4677582-4.5088081 2.1366577-6.5487061 1.5042419l-22.0009002-6.8207931c-4.1768227-1.2949104-9.0533218-1.7780914-14.0995245-1.9426498-.6149635-.0205002-1.1749897-.1013908-1.6690321-.2545586-5.0024333-1.550869-1.8488655-9.5059242 7.0291901-17.7668343 8.8780365-8.2608985 20.1262645-13.7065277 25.1286983-12.1556568zm-30.8395061 28.4751225c6.6766014.2137108 11.7238026.9199486 15.9006252 2.214859l23.0289726 7.1395187c.5827789.1806755 1.4200554-.0160522 1.8627434-.4279709l23.1676254-21.5571671c.4425812-.4118195.3409958-.8996391-.2417831-1.0803146l-23.0289726-7.1395168c-4.1851616-1.2974968-7.8478165-3.2915001-11.5238914-6.2873573-.1362915-.1041584-.289669-.1826401-.4596214-.2353287-2.6547089-.8230228-12.5016975 3.3787155-21.3111629 11.5758038-8.8156404 8.2028389-10.6647177 14.88414-8.0100079 15.7071609.1699523.0526886.3794612.0789414.6154727.090313" fill="#d6b24e"/><path d="m19.6668987 32.5719872c-8.8156424 8.2028389-10.6647081 14.8841286-8.0100012 15.7071495.1699543.0526924.3794556.0789337.6154652.0903168 6.6766195.213707 11.7237978.9199524 15.9006243 2.2148666l23.0289783 7.1395226c.5827637.1806679 1.4200668-.0160637 1.8627472-.4279709l23.1676178-21.5571671c.4425964-.4118309.3409805-.8996468-.2417755-1.0803146l-23.0289803-7.1395226c-4.185173-1.2975006-7.847805-3.2915001-11.5238838-6.2873707-.1363106-.1041508-.2896614-.1826382-.4596176-.2353287-2.654705-.8230209-12.5017071 3.3787251-21.3111744 11.5758191z" fill="#feda6f"/><path d="m78.6726074 42.2513008-22.1199951 20.5795899c-1.5799561 1.4702187-4.5098877 2.1401405-6.5499268 1.5102577l-22-6.8203163c-4.1800537-1.2998047-9.0500488-1.7797852-14.1000967-1.949707-.6098633-.0200195-1.1699219-.1000977-1.6699219-.25-1.2700195-.3901367-2.0100098-1.2001953-2.2700195-2.3100586l-1.2800293-5.5097656c.2600098 1.1196289 1 1.9199219 2.2700195 2.3198242.5.1499023 1.0600586.2299805 1.6699219.25 5.0500479.1601562 9.9201651.6499023 14.1000967 1.9399414l22 6.8198242c2.0400391.6401367 4.9699707-.0297852 6.5500488-1.5l22.119873-20.5795898c.7900391-.7402344 1.0900879-1.5400391.9300537-2.2304688l1.2800293 5.5102539c.1600343.6899414-.1400145 1.4799804-.9300536 2.2202148z" fill="#bb9b45"/><path d="m33.6473579 33.994133c.7598381-.1745529 1.4466476-.0082436 1.5340347.3721581.0872612.3798485-.4581108.8292198-1.2179489 1.0037727-.7599792.1745834-1.4466476.0082436-1.5339088-.3716049-.0873871-.3804016.4578476-.8297387 1.217823-1.0043259z" fill="#d6b24e"/><path d="m49.627285 39.063839c.7598381-.1745567 1.4466476-.0082474 1.5340347.3721542.0872612.3798485-.4581108.8292198-1.2179489 1.0037727-.7599792.1745834-1.4466476.0082474-1.5339088-.3716049-.0873871-.3804016.4578476-.8297386 1.217823-1.004322z" fill="#d6b24e"/><path d="m50.0833817 50.6235847c.7598381-.1745567 1.4466476-.0082474 1.5340347.3721542.0872612.3798485-.4581108.8292198-1.2179489 1.0037727-.7599792.1745834-1.4466476.0082474-1.5339088-.3716049-.0873872-.3804015.4578475-.8297385 1.217823-1.004322z" fill="#d6b24e"/><path d="m37.4604683 26.1776772c.7417336-.1703949 1.412178-.008049 1.4974861.363287.0851822.3708019-.447197.8094654-1.1889343.9798603-.7418709.1704254-1.4121819.008049-1.497364-.362751-.0853043-.371338.4469413-.8099709 1.1888122-.9803963z" fill="#d6b24e"/><path d="m52.053524 31.196207c.379921-.0872765.7233238-.0041237.7670174.1860771.0436325.1899261-.2290535.4146099-.6089745.5018864-.3799858.0872936-.72332.0041237-.7669525-.1858025-.0436935-.1901988.2289238-.4148673.6089096-.502161z" fill="#d6b24e"/><path d="m25.8255081 40.294117c1.337965-.3073654 2.5473309-.0145226 2.7012062.6553078.1536541.6688614-.8066635 1.4601326-2.1446266 1.767498-1.3382072.3074188-2.5473309.0145187-2.700985-.6543427-.1538753-.6698265.8062001-1.4610443 2.1444054-1.7684631z" fill="#d6b24e"/><path d="m35.9306412 41.6592293c1.3379631-.3073616 2.5473289-.0145187 2.7012062.6553116.153656.6688614-.8066635 1.4601326-2.1446266 1.7674942-1.3382072.3074188-2.5473328.0145226-2.700985-.6543388-.1538772-.6698304.8061981-1.4610482 2.1444054-1.768467z" fill="#d6b24e"/></svg>